<svg xmlns="http://www.w3.org/2000/svg" width="69" height="69" viewBox="0 0 69 69"><g><g><path fill="#eef4f5" d="M0 10C0 4.477 4.477 0 10 0h49c5.523 0 10 4.477 10 10v49c0 5.523-4.477 10-10 10H10C4.477 69 0 64.523 0 59z"/></g><g><path fill="#c0d6cb" d="M36.953 23.91a.652.652 0 0 0-.652.652v11.74H24.562a.652.652 0 0 0-.652.651c0 7.193 5.851 13.044 13.043 13.044 7.193 0 13.044-5.851 13.044-13.044 0-7.192-5.851-13.043-13.044-13.043z"/></g><g><path fill="#4ebe86" d="M33.696 33.696V20.652a.648.648 0 0 0-.637-.652C25.855 19.992 19.992 25.855 20 33.06c0 .353.299.636.652.636z"/></g></g></svg>